<svg width="33" height="33" viewBox="0 0 33 33" fill="none" xmlns="http://www.w3.org/2000/svg">
<path d="M30.3081 16.1708L17.1185 2.99085C17.0236 2.89569 16.9108 2.8202 16.7866 2.76869C16.6624 2.71719 16.5293 2.69067 16.3948 2.69067C16.2604 2.69067 16.1273 2.71719 16.0031 2.76869C15.8789 2.8202 15.7661 2.89569 15.6712 2.99085L2.48164 16.1708C2.09738 16.555 1.87964 17.077 1.87964 17.6213C1.87964 18.7517 2.79865 19.6707 3.92899 19.6707H5.31872V29.0753C5.31872 29.6421 5.77662 30.1 6.34339 30.1H14.3455V22.9272H17.9319V30.1H26.4463C27.0131 30.1 27.471 29.6421 27.471 29.0753V19.6707H28.8607C29.4051 19.6707 29.927 19.4561 30.3113 19.0687C31.1086 18.2682 31.1086 16.9713 30.3081 16.1708Z" fill="black"/>
</svg>
