<svg width="47" height="47" viewBox="0 0 47 47" fill="none" xmlns="http://www.w3.org/2000/svg">
<g clip-path="url(#clip0_169_11)">
<path d="M23.5 3.9165C26.5401 3.91639 29.4619 5.09457 31.6515 7.2035C33.8411 9.31243 35.1282 12.1879 35.2422 15.2259L35.25 15.6665H37.2083C38.1965 15.6662 39.1482 16.0394 39.8727 16.7113C40.5973 17.3832 41.0411 18.3041 41.1152 19.2894L41.125 19.5832V39.1665C41.1253 40.1546 40.7521 41.1064 40.0802 41.8309C39.4084 42.5555 38.4874 42.9993 37.5021 43.0734L37.2083 43.0832H9.79167C8.80354 43.0835 7.85181 42.7103 7.12726 42.0384C6.40271 41.3665 5.9589 40.4456 5.88479 39.4603L5.875 39.1665V19.5832C5.87469 18.595 6.24788 17.6433 6.91976 16.9188C7.59165 16.1942 8.51257 15.7504 9.49792 15.6763L9.79167 15.6665H11.75C11.75 12.5502 12.9879 9.56155 15.1915 7.358C17.395 5.15445 20.3837 3.9165 23.5 3.9165ZM37.2083 19.5832H9.79167V39.1665H37.2083V19.5832ZM23.5 23.4998C24.3354 23.5001 25.1488 23.7675 25.8215 24.2629C26.4941 24.7583 26.9908 25.4558 27.2388 26.2536C27.4868 27.0513 27.4733 27.9074 27.2002 28.6969C26.9271 29.4864 26.4087 30.1679 25.7208 30.6419L25.4583 30.8083V33.2915C25.4578 33.7906 25.2667 34.2707 24.924 34.6337C24.5814 34.9966 24.1131 35.215 23.6148 35.2443C23.1165 35.2736 22.6258 35.1114 22.2431 34.7911C21.8603 34.4707 21.6143 34.0163 21.5554 33.5206L21.5417 33.2915V30.8083C20.795 30.3772 20.2115 29.7118 19.8816 28.9153C19.5517 28.1187 19.4938 27.2356 19.717 26.4028C19.9401 25.57 20.4318 24.8341 21.1158 24.3093C21.7998 23.7844 22.6378 23.4999 23.5 23.4998ZM23.5 7.83317C21.4225 7.83317 19.43 8.65847 17.961 10.1275C16.492 11.5965 15.6667 13.589 15.6667 15.6665H31.3333C31.3333 13.589 30.508 11.5965 29.039 10.1275C27.57 8.65847 25.5775 7.83317 23.5 7.83317Z" fill="black"/>
</g>
<defs>
<clipPath id="clip0_169_11">
<rect width="47" height="47" fill="white"/>
</clipPath>
</defs>
</svg>
